# xmcd
#
# Track frame offsets: 
#        208
#        22144
#        38314
#        62403
#        97968
#        122800
#        137801
#        150786
#        172044
#        197904
#        212945
#        229315
#
# Disc length: 3217 seconds
#
# Revision: 1
# Processed by: cddbd v1.5.2PL0 Copyright (c) Steve Scherf et al.
# Submitted via: ExactAudioCopy v0.99pb4
#
DISCID=9e0c8f0c
DTITLE=Bobby Messano and NBO - Dominion Road
DYEAR=1998
DGENRE=Blues
TTITLE0=Sea of Hope
TTITLE1=Get Up and Dance
TTITLE2=Guess LIve Always Works That Way
TTITLE3=Dominion Roads
TTITLE4=In The Depths of Love
TTITLE5=Luck of the Draw
TTITLE6=I Will Try
TTITLE7=Hard World
TTITLE8=Holdin' Ground
TTITLE9=One Way Lover
TTITLE10=The Way Things Used To Be
TTITLE11=Keep On Running
EXTD=
EXTT0=
EXTT1=
EXTT2=
EXTT3=
EXTT4=
EXTT5=
EXTT6=
EXTT7=
EXTT8=
EXTT9=
EXTT10=
EXTT11=
PLAYORDER=
